<svg xmlns="http://www.w3.org/2000/svg" xmlns:xlink="http://www.w3.org/1999/xlink" width="1080" zoomAndPan="magnify" viewBox="0 0 810 809.999993" height="1080" preserveAspectRatio="xMidYMid meet" version="1.0"><defs><g/></defs><rect x="-81" width="972" fill="#ffffff" y="-80.999999" height="971.999992" fill-opacity="1"/><rect x="-81" width="972" fill="#ffffff" y="-80.999999" height="971.999992" fill-opacity="1"/><rect x="-81" width="972" fill="#ffffff" y="-80.999999" height="971.999992" fill-opacity="1"/><g fill="#ff00ff" fill-opacity="1"><g transform="translate(316.156527, 596.24999)"><g><path d="M 63.738281 0 L 159.347656 0 L 159.347656 -31.871094 L 191.214844 -31.871094 L 191.214844 -191.214844 L 159.347656 -191.214844 L 159.347656 -63.738281 L 127.476562 -63.738281 L 127.476562 -31.871094 L 95.609375 -31.871094 L 95.609375 -63.738281 L 63.738281 -63.738281 L 63.738281 -159.347656 L 31.871094 -159.347656 L 31.871094 -31.871094 L 63.738281 -31.871094 Z M 31.871094 -286.824219 L 63.738281 -286.824219 L 63.738281 -382.433594 L 95.609375 -382.433594 L 95.609375 -414.300781 L 127.476562 -414.300781 L 127.476562 -382.433594 L 159.347656 -382.433594 L 159.347656 -318.695312 L 191.214844 -318.695312 L 191.214844 -414.300781 L 159.347656 -414.300781 L 159.347656 -446.171875 L 63.738281 -446.171875 L 63.738281 -414.300781 L 31.871094 -414.300781 Z M 63.738281 -254.953125 L 95.609375 -254.953125 L 95.609375 -286.824219 L 63.738281 -286.824219 Z M 95.609375 -223.085938 L 127.476562 -223.085938 L 127.476562 -254.953125 L 95.609375 -254.953125 Z M 127.476562 -191.214844 L 159.347656 -191.214844 L 159.347656 -223.085938 L 127.476562 -223.085938 Z M 127.476562 -191.214844 "/></g></g></g><g fill="#00ffff" fill-opacity="1"><g transform="translate(270.742193, 596.24999)"><g><path d="M 63.738281 0 L 159.347656 0 L 159.347656 -31.871094 L 191.214844 -31.871094 L 191.214844 -191.214844 L 159.347656 -191.214844 L 159.347656 -63.738281 L 127.476562 -63.738281 L 127.476562 -31.871094 L 95.609375 -31.871094 L 95.609375 -63.738281 L 63.738281 -63.738281 L 63.738281 -159.347656 L 31.871094 -159.347656 L 31.871094 -31.871094 L 63.738281 -31.871094 Z M 31.871094 -286.824219 L 63.738281 -286.824219 L 63.738281 -382.433594 L 95.609375 -382.433594 L 95.609375 -414.300781 L 127.476562 -414.300781 L 127.476562 -382.433594 L 159.347656 -382.433594 L 159.347656 -318.695312 L 191.214844 -318.695312 L 191.214844 -414.300781 L 159.347656 -414.300781 L 159.347656 -446.171875 L 63.738281 -446.171875 L 63.738281 -414.300781 L 31.871094 -414.300781 Z M 63.738281 -254.953125 L 95.609375 -254.953125 L 95.609375 -286.824219 L 63.738281 -286.824219 Z M 95.609375 -223.085938 L 127.476562 -223.085938 L 127.476562 -254.953125 L 95.609375 -254.953125 Z M 127.476562 -191.214844 L 159.347656 -191.214844 L 159.347656 -223.085938 L 127.476562 -223.085938 Z M 127.476562 -191.214844 "/></g></g></g><g fill="#43c5ed" fill-opacity="1"><g transform="translate(293.44936, 596.24999)"><g><path d="M 63.738281 0 L 159.347656 0 L 159.347656 -31.871094 L 191.214844 -31.871094 L 191.214844 -191.214844 L 159.347656 -191.214844 L 159.347656 -63.738281 L 127.476562 -63.738281 L 127.476562 -31.871094 L 95.609375 -31.871094 L 95.609375 -63.738281 L 63.738281 -63.738281 L 63.738281 -159.347656 L 31.871094 -159.347656 L 31.871094 -31.871094 L 63.738281 -31.871094 Z M 31.871094 -286.824219 L 63.738281 -286.824219 L 63.738281 -382.433594 L 95.609375 -382.433594 L 95.609375 -414.300781 L 127.476562 -414.300781 L 127.476562 -382.433594 L 159.347656 -382.433594 L 159.347656 -318.695312 L 191.214844 -318.695312 L 191.214844 -414.300781 L 159.347656 -414.300781 L 159.347656 -446.171875 L 63.738281 -446.171875 L 63.738281 -414.300781 L 31.871094 -414.300781 Z M 63.738281 -254.953125 L 95.609375 -254.953125 L 95.609375 -286.824219 L 63.738281 -286.824219 Z M 95.609375 -223.085938 L 127.476562 -223.085938 L 127.476562 -254.953125 L 95.609375 -254.953125 Z M 127.476562 -191.214844 L 159.347656 -191.214844 L 159.347656 -223.085938 L 127.476562 -223.085938 Z M 127.476562 -191.214844 "/></g></g></g></svg>